<svg width="192" height="48" viewBox="0 0 192 48" fill="none" xmlns="http://www.w3.org/2000/svg">
<rect width="192" height="48" rx="24" fill="white"/>
<path d="M43.524 19.686C42.216 19.686 41.268 20.052 40.68 20.784C40.104 21.504 39.816 22.494 39.816 23.754C39.816 24.366 39.888 24.924 40.032 25.428C40.176 25.92 40.392 26.346 40.68 26.706C40.968 27.066 41.328 27.348 41.76 27.552C42.192 27.744 42.696 27.84 43.272 27.84C43.584 27.84 43.848 27.834 44.064 27.822C44.292 27.81 44.49 27.786 44.658 27.75V23.412H47.466V29.586C47.13 29.718 46.59 29.856 45.846 30C45.102 30.156 44.184 30.234 43.092 30.234C42.156 30.234 41.304 30.09 40.536 29.802C39.78 29.514 39.132 29.094 38.592 28.542C38.052 27.99 37.632 27.312 37.332 26.508C37.044 25.704 36.9 24.786 36.9 23.754C36.9 22.71 37.062 21.786 37.386 20.982C37.71 20.178 38.154 19.5 38.718 18.948C39.282 18.384 39.942 17.958 40.698 17.67C41.466 17.382 42.282 17.238 43.146 17.238C43.734 17.238 44.262 17.28 44.73 17.364C45.21 17.436 45.618 17.526 45.954 17.634C46.302 17.73 46.584 17.832 46.8 17.94C47.028 18.048 47.19 18.132 47.286 18.192L46.476 20.442C46.092 20.238 45.648 20.064 45.144 19.92C44.652 19.764 44.112 19.686 43.524 19.686ZM50.0787 30V17.526H58.5027V19.884H52.8867V22.332H57.8727V24.636H52.8867V27.642H58.9167V30H50.0787ZM70.2467 17.526V19.92H66.4847V30H63.6767V19.92H59.9147V17.526H70.2467ZM79.7775 27.858C80.1735 27.858 80.4975 27.828 80.7495 27.768C81.0135 27.696 81.2235 27.606 81.3795 27.498C81.5355 27.378 81.6435 27.24 81.7035 27.084C81.7635 26.928 81.7935 26.754 81.7935 26.562C81.7935 26.154 81.6015 25.818 81.2175 25.554C80.8335 25.278 80.1735 24.984 79.2375 24.672C78.8295 24.528 78.4215 24.366 78.0135 24.186C77.6055 23.994 77.2395 23.76 76.9155 23.484C76.5915 23.196 76.3275 22.854 76.1235 22.458C75.9195 22.05 75.8175 21.558 75.8175 20.982C75.8175 20.406 75.9255 19.89 76.1415 19.434C76.3575 18.966 76.6635 18.57 77.0595 18.246C77.4555 17.922 77.9355 17.676 78.4995 17.508C79.0635 17.328 79.6995 17.238 80.4075 17.238C81.2475 17.238 81.9735 17.328 82.5855 17.508C83.1975 17.688 83.7015 17.886 84.0975 18.102L83.2875 20.316C82.9395 20.136 82.5495 19.98 82.1175 19.848C81.6975 19.704 81.1875 19.632 80.5875 19.632C79.9155 19.632 79.4295 19.728 79.1295 19.92C78.8415 20.1 78.6975 20.382 78.6975 20.766C78.6975 20.994 78.7515 21.186 78.8595 21.342C78.9675 21.498 79.1175 21.642 79.3095 21.774C79.5135 21.894 79.7415 22.008 79.9935 22.116C80.2575 22.212 80.5455 22.314 80.8575 22.422C81.5055 22.662 82.0695 22.902 82.5495 23.142C83.0295 23.37 83.4255 23.64 83.7375 23.952C84.0615 24.264 84.3015 24.63 84.4575 25.05C84.6135 25.47 84.6915 25.98 84.6915 26.58C84.6915 27.744 84.2835 28.65 83.4675 29.298C82.6515 29.934 81.4215 30.252 79.7775 30.252C79.2255 30.252 78.7275 30.216 78.2835 30.144C77.8395 30.084 77.4435 30.006 77.0955 29.91C76.7595 29.814 76.4655 29.712 76.2135 29.604C75.9735 29.496 75.7695 29.394 75.6015 29.298L76.3935 27.066C76.7655 27.27 77.2215 27.456 77.7615 27.624C78.3135 27.78 78.9855 27.858 79.7775 27.858ZM95.7525 17.526V19.92H91.9905V30H89.1825V19.92H85.4205V17.526H95.7525ZM104.433 30C104.301 29.568 104.151 29.124 103.983 28.668C103.827 28.212 103.671 27.756 103.515 27.3H98.6546C98.4986 27.756 98.3366 28.212 98.1686 28.668C98.0126 29.124 97.8686 29.568 97.7366 30H94.8206C95.2886 28.656 95.7326 27.414 96.1526 26.274C96.5726 25.134 96.9806 24.06 97.3766 23.052C97.7846 22.044 98.1806 21.09 98.5646 20.19C98.9606 19.278 99.3686 18.39 99.7886 17.526H102.471C102.879 18.39 103.281 19.278 103.677 20.19C104.073 21.09 104.469 22.044 104.865 23.052C105.273 24.06 105.687 25.134 106.107 26.274C106.527 27.414 106.971 28.656 107.439 30H104.433ZM101.067 20.352C101.007 20.532 100.917 20.778 100.797 21.09C100.677 21.402 100.539 21.762 100.383 22.17C100.227 22.578 100.053 23.028 99.8606 23.52C99.6806 24.012 99.4946 24.528 99.3026 25.068H102.849C102.657 24.528 102.471 24.012 102.291 23.52C102.111 23.028 101.937 22.578 101.769 22.17C101.613 21.762 101.475 21.402 101.355 21.09C101.235 20.778 101.139 20.532 101.067 20.352ZM112.707 17.382C114.579 17.382 116.013 17.718 117.009 18.39C118.005 19.05 118.503 20.082 118.503 21.486C118.503 22.362 118.299 23.076 117.891 23.628C117.495 24.168 116.919 24.594 116.163 24.906C116.415 25.218 116.679 25.578 116.955 25.986C117.231 26.382 117.501 26.802 117.765 27.246C118.041 27.678 118.305 28.134 118.557 28.614C118.809 29.082 119.043 29.544 119.259 30H116.109C115.881 29.592 115.647 29.178 115.407 28.758C115.179 28.338 114.939 27.93 114.687 27.534C114.447 27.138 114.207 26.766 113.967 26.418C113.727 26.058 113.487 25.734 113.247 25.446H111.861V30H109.053V17.706C109.665 17.586 110.295 17.502 110.943 17.454C111.603 17.406 112.191 17.382 112.707 17.382ZM112.869 19.776C112.665 19.776 112.479 19.782 112.311 19.794C112.155 19.806 112.005 19.818 111.861 19.83V23.214H112.653C113.709 23.214 114.465 23.082 114.921 22.818C115.377 22.554 115.605 22.104 115.605 21.468C115.605 20.856 115.371 20.424 114.903 20.172C114.447 19.908 113.769 19.776 112.869 19.776ZM130.135 17.526V19.92H126.373V30H123.565V19.92H119.803V17.526H130.135ZM131.94 30V17.526H140.364V19.884H134.748V22.332H139.734V24.636H134.748V27.642H140.778V30H131.94ZM145.664 27.714C145.796 27.726 145.946 27.738 146.114 27.75C146.294 27.75 146.504 27.75 146.744 27.75C148.148 27.75 149.186 27.396 149.858 26.688C150.542 25.98 150.884 25.002 150.884 23.754C150.884 22.446 150.56 21.456 149.912 20.784C149.264 20.112 148.238 19.776 146.834 19.776C146.642 19.776 146.444 19.782 146.24 19.794C146.036 19.794 145.844 19.806 145.664 19.83V27.714ZM153.782 23.754C153.782 24.834 153.614 25.776 153.278 26.58C152.942 27.384 152.462 28.05 151.838 28.578C151.226 29.106 150.476 29.502 149.588 29.766C148.7 30.03 147.704 30.162 146.6 30.162C146.096 30.162 145.508 30.138 144.836 30.09C144.164 30.054 143.504 29.97 142.856 29.838V17.688C143.504 17.568 144.176 17.49 144.872 17.454C145.58 17.406 146.186 17.382 146.69 17.382C147.758 17.382 148.724 17.502 149.588 17.742C150.464 17.982 151.214 18.36 151.838 18.876C152.462 19.392 152.942 20.052 153.278 20.856C153.614 21.66 153.782 22.626 153.782 23.754Z" fill="black"/>
</svg>
