<svg width="40" height="40" viewBox="0 0 40 40" fill="none" xmlns="http://www.w3.org/2000/svg">
<circle cx="20" cy="20" r="20" fill="white"/>
<path d="M22.352 16.664C22.352 17.96 22.304 19.168 22.208 20.288C22.112 21.408 21.984 22.544 21.824 23.696H19.088C18.928 22.544 18.792 21.408 18.68 20.288C18.584 19.168 18.536 17.96 18.536 16.664V12.368H22.352V16.664ZM22.664 27.104C22.664 27.808 22.432 28.352 21.968 28.736C21.52 29.12 21.008 29.312 20.432 29.312C19.856 29.312 19.336 29.12 18.872 28.736C18.424 28.352 18.2 27.808 18.2 27.104C18.2 26.4 18.424 25.856 18.872 25.472C19.336 25.088 19.856 24.896 20.432 24.896C21.008 24.896 21.52 25.088 21.968 25.472C22.432 25.856 22.664 26.4 22.664 27.104Z" fill="black"/>
</svg>
